<svg viewBox="0 0 420 420" xmlns="http://www.w3.org/2000/svg">
  <style>
    path {fill: #000000;}
    @media (prefers-color-scheme: dark) {
      path {fill: #ffffff;}
    }
  </style>
  <title>LPtp</title>
  <path d="m347.53 117.47c-8.01-35.43-39.72-61.97-77.53-61.97h-90c-2.49 0-4.5 2.01-4.5 4.5v115.5h-51v-21h25.5c2.49 0 4.5-2.01 4.5-4.5v-30c0-2.49-2.01-4.5-4.5-4.5h-25.5v-25.5c0-2.49-2.01-4.5-4.5-4.5h-30c-2.49 0-4.5 2.01-4.5 4.5v25.5h-21v-85.5c0-2.49-2.01-4.5-4.5-4.5h-30c-2.49 0-4.5 2.01-4.5 4.5v180c0 2.49 2.01 4.5 4.5 4.5h55.5v55.5c0 2.49 2.01 4.5 4.5 4.5h85.5v55.5c0 2.49 2.01 4.5 4.5 4.5h30c2.49 0 4.5-2.01 4.5-4.5v-55.5h21v115.5c0 2.49 2.01 4.5 4.5 4.5h30c2.49 0 4.5-2.01 4.5-4.5v-115.5h55.5c43.84 0 79.5-35.66 79.5-79.5 0-37.3-25.88-69.42-61.97-77.53zm-107.53-1.97c-2.49 0-4.5 2.01-4.5 4.5v55.5h-21v-81h55.5c15.27 0 28.58 8.49 35.48 21zm34.5 98.86c33.92-1.9 62.21-25.16 71.64-56.52 14.74 6.35 24.36 20.75 24.36 37.15 0 22.33-18.17 40.5-40.5 40.5h-55.5v-21.14zm-99 21.14h-51v-21h51zm-90-60h-21v-21h21zm-51 30v-171h21v145.5c0 2.49 2.01 4.5 4.5 4.5h25.5v21zm60 60v-115.5c0-2.49-2.01-4.5-4.5-4.5h-25.5v-21h25.5c2.49 0 4.5-2.01 4.5-4.5v-25.5h21v25.5c0 2.49 2.01 4.5 4.5 4.5h25.5v21h-25.5c-2.49 0-4.5 2.01-4.5 4.5v90c0 2.49 2.01 4.5 4.5 4.5h55.5v21zm111 60h-21v-115.5c0-2.49-2.01-4.5-4.5-4.5h-55.5v-21h55.5c2.49 0 4.5-2.01 4.5-4.5v-115.5h85.5c34.56 0 63.37 25 69.34 57.86.17.95.33 1.9.46 2.86.02.14.04.28.05.43.12.93.23 1.85.32 2.78.03.33.05.66.08.99.06.75.12 1.49.16 2.24.05 1.11.08 2.22.08 3.34 0 1.02-.03 2.04-.07 3.05-.01.24-.02.47-.03.71-.05.87-.11 1.74-.19 2.6-.04.42-.08.85-.13 1.27-.05.51-.12 1.01-.19 1.52-.11.81-.22 1.62-.36 2.43-.04.25-.09.51-.13.76-.19 1.1-.42 2.19-.66 3.28-6.8 29.97-32.73 52.76-64.24 54.75v-21.06c19.5-1.76 35.77-14.89 42.12-32.69.01-.04.04-.07.05-.11.02-.06.04-.13.06-.19.11-.32.21-.64.32-.97.12-.36.24-.73.35-1.09s.21-.73.31-1.09c.09-.34.19-.68.27-1.02.09-.37.18-.74.27-1.12.08-.35.16-.7.23-1.05.07-.36.15-.73.21-1.09.07-.37.13-.75.19-1.13.05-.35.11-.7.16-1.05.06-.41.1-.83.15-1.24.04-.32.07-.64.1-.96.04-.48.07-.96.1-1.44.02-.27.04-.53.05-.8.03-.75.05-1.51.05-2.26s-.02-1.57-.06-2.35c-.01-.26-.03-.53-.05-.79-.03-.51-.07-1.02-.12-1.53-.03-.31-.06-.62-.1-.93-.05-.46-.11-.91-.17-1.37-.05-.33-.09-.65-.15-.98-.07-.44-.15-.87-.23-1.31-.06-.33-.12-.65-.19-.98-.1-.46-.21-.92-.32-1.38-.07-.28-.13-.57-.2-.85-.18-.71-.39-1.41-.6-2.11-.08-.26-.17-.51-.25-.77-.13-.39-.25-.77-.38-1.16-.01-.04-.03-.07-.05-.1-6.84-19.15-25.16-32.9-46.63-32.9h-60c-2.49 0-4.5 2.01-4.5 4.5v90c0 2.49 2.01 4.5 4.5 4.5h25.5v21h-25.5c-2.49 0-4.5 2.01-4.5 4.5v115.5zm69-150.26v-20.74h30.98c-6.21 11.26-17.63 19.26-30.98 20.74zm-39 39.26v21h-21v-21zm94.5 51h-60c-2.49 0-4.5 2.01-4.5 4.5v115.5h-21v-115.5c0-2.49-2.01-4.5-4.5-4.5h-25.5v-21h25.5c2.49 0 4.5-2.01 4.5-4.5v-115.5h64.61s.03.08.04.13c.21.79.4 1.58.56 2.38.02.11.04.23.06.35.13.67.24 1.35.33 2.03.03.24.06.48.09.72.07.59.13 1.18.17 1.77.02.24.04.47.05.71.05.81.08 1.61.08 2.43s-.03 1.62-.08 2.43c-.01.24-.04.47-.05.71-.05.59-.1 1.18-.17 1.77-.03.24-.06.48-.09.72-.09.68-.21 1.35-.33 2.03-.02.11-.04.23-.06.34-.16.8-.35 1.59-.56 2.38-.01.04-.02.08-.04.13h-39.11c-2.49 0-4.5 2.01-4.5 4.5v90c0 2.49 2.01 4.5 4.5 4.5h60c27.29 0 49.5-22.21 49.5-49.5 0-20.59-12.4-38.6-31.25-46.02.02-.14.04-.27.06-.41.15-.88.29-1.77.42-2.67.05-.38.1-.76.15-1.14.1-.8.19-1.59.27-2.39.06-.59.09-1.18.14-1.77.04-.62.09-1.23.12-1.85.06-1.25.1-2.5.1-3.75s-.03-2.61-.1-3.92c-.06-1.32-.16-2.64-.29-3.94 30.13 8.43 51.39 36.03 51.39 67.86 0 38.87-31.63 70.5-70.5 70.5z"/></svg>