<svg viewBox="0 0 420 420" xmlns="http://www.w3.org/2000/svg">
  <style>
    path {fill: #2e2ee5;}
    @media (prefers-color-scheme: dark) {
      path {fill: #8095ff;}
    }
  </style>
  <title>LPtp</title>
  <path d="m343.72 121.28c-6.45-34.86-36.99-61.28-73.72-61.28h-90v120h-60v-30h30v-30h-30v-30h-30v30h-30v-90h-30v180h60v60h90v60h30v-60h30v120h30v-120h60c41.42 0 75-33.58 75-75 0-36.73-26.41-67.27-61.28-73.72zm-73.72 28.72h42.43c-6.18 17.48-22.84 30-42.43 30zm-60-60h60c19.59 0 36.25 12.52 42.43 30h-72.43v60h-30zm-150 90v-30h30v30zm120 60h-60v-30h60zm30 0v-30h30v30zm120 0h-60v-30c35.6 0 65.38-24.81 73.06-58.07 18.48 5.6 31.94 22.76 31.94 43.07 0 24.85-20.15 45-45 45z"/>
</svg>